<svg width="40" height="40" viewBox="0 0 40 40" fill="none" xmlns="http://www.w3.org/2000/svg">
<rect width="40" height="40"/>
<circle cx="20" cy="20" r="17.5" fill="black" stroke="black"/>
<path d="M18.8975 7.90251C19.5279 7.78947 20.5471 6.61148 21.1531 6.99774C21.4658 7.34955 21.458 7.84104 21.4484 8.29206C21.4036 10.3999 20.459 12.6176 19.8023 14.5878C18.4933 18.5147 16.9323 22.3832 15.0082 26.0482C14.4836 27.0474 13.5468 28.0153 13.2364 29.1018C13.1611 29.3652 12.9413 29.7434 12.7966 29.9877C12.4979 30.4917 12.1938 30.8616 12.2248 30.0442C12.2723 28.7947 13.3113 27.8646 14.5307 28.5803C15.5156 29.1583 16.433 30.0244 17.5403 30.3584C18.5853 30.6736 19.8196 30.5282 20.8955 30.5218C22.5277 30.512 25.7964 29.2777 25.7964 29.2777" stroke="white" stroke-width="4" stroke-linecap="round"/>
</svg>
